<svg xmlns="http://www.w3.org/2000/svg" viewBox="0 0 1107.48 211.61"><defs><style>.a{isolation:isolate;}.b{opacity:0.75;mix-blend-mode:multiply;}.c,.d,.e{fill:none;stroke-linecap:square;stroke-linejoin:round;}.c{stroke:#231f20;}.c,.d{stroke-width:16px;}.d,.e{stroke:#be9c7a;}.e{stroke-width:12px;}.f{fill:#fff;}.g{fill:#d4dca9;}</style></defs><title>Artboard 1</title><g class="a"><g class="b"><path class="c" d="M39,186.67c-3.87.21-5.27-1.3-4.62-4.92l3.08-17c.66-3.62,2.65-5.31,6.51-5.52l41.55-2.2a5.14,5.14,0,0,0,4.78-4.42c.61-3.34-.54-4.57-3.12-4.72l-22.62-1.82C50.38,144.83,42,139.53,45,123.28l2.76-15.23c3-16.54,16.53-26.17,36.61-27.23l43.25-2.3c3.87-.2,5.27,1.3,4.62,4.93l-3.14,17.27c-.65,3.62-2.64,5.31-6.5,5.51l-36,1.91a5.25,5.25,0,0,0-5,4.58c-.47,2.61.76,4.27,3.33,4.42l22.49,1.68c14.15,1.26,22.68,6.55,19.73,22.8l-2.76,15.24c-3,16.54-16.68,26.17-36.61,27.23Z"/><path class="c" d="M168.27,179.82c-26,1.37-36.29-7.42-32.64-27.58l8.19-45.12c3.68-20.31,17.44-30.38,43.39-31.76l37.7-2c3.86-.2,5.27,1.3,4.61,4.93l-3.18,17.56c-.66,3.62-2.65,5.31-6.51,5.51L188.78,103c-6.49.34-9.85,2.82-10.74,7.75l-6.26,34.53c-.87,4.79,1.67,6.81,8.16,6.47L211,150.11c3.86-.21,5.27,1.3,4.61,4.93l-3.13,17.26c-.66,3.63-2.65,5.31-6.51,5.52Z"/><path class="c" d="M250.3,175.47l-22.71,1.2c-3.86.21-5.27-1.3-4.62-4.92l6.95-38.31c1.05-5.8,4.22-13.15,10.24-23.53l19.41-33.64c1.84-3.41,4.58-5,8.75-5.21l41.55-2.2c4-.22,6.22,1.1,6.86,4.38l7.46,32.22c2.33,9.93,2.87,17.09,1.82,22.89l-6.95,38.3c-.66,3.63-2.65,5.31-6.51,5.52l-23.33,1.23c-4.17.23-5.73-1.27-5.07-4.9l3.68-20.31-27.34,1.45L256.8,170C256.15,173.58,254.16,175.26,250.3,175.47Zm16.52-52.32,24.26-1.28-3.26-21.67c-.46-1.7-1.26-2.38-2.49-2.31l-3.86.2c-1.24.07-2.3.84-3.39,2.63Z"/><path class="c" d="M338,170.82c-3.86.2-5.27-1.3-4.61-4.93l17.05-94c.66-3.63,2.65-5.32,6.51-5.52L381.86,65c3.25-.17,5,.88,6.32,4l9.61,22.91c.77,1.68,1.1,2.38,2.33,2.32l1.39-.08c1.24-.06,1.84-.81,3.23-2.61l18-24.38c2.43-3.29,4.65-4.56,7.89-4.73l25-1.33c3.86-.2,5.27,1.31,4.61,4.93l-17.05,94c-.66,3.63-2.64,5.32-6.51,5.52L413,166.84c-4,.22-5.27-1.3-4.61-4.92l9.26-51.07-12,16.29c-2.46,3.44-5,4.87-9,5.08l-6.18.33c-4,.21-6.09-1-7.34-4.21L376.83,113l-9.26,51.07c-.66,3.62-2.65,5.31-6.51,5.52Z"/><path class="c" d="M495.3,162.48c-25.95,1.37-36.28-7.42-32.63-27.58l8.19-45.12C474.54,69.47,488.3,59.4,514.25,58L552,56c3.86-.2,5.27,1.3,4.61,4.93l-3.19,17.56c-.65,3.62-2.64,5.31-6.5,5.51l-31,1.65c-6.49.34-9.85,2.82-10.74,7.75L498.81,128c-.86,4.79,1.68,6.81,8.16,6.47l31-1.65c3.87-.21,5.28,1.3,4.62,4.93L539.51,155c-.66,3.63-2.65,5.31-6.51,5.52Z"/><path class="c" d="M596.56,159.26c-38.62,2.05-45.88-9.35-42.67-27l9-49.47C566.07,65,577.68,52.5,616.3,50.45S662,60,658.79,77.66l-9,49.47C646.61,144.83,635.18,157.22,596.56,159.26Zm5.08-28c11.28-.59,13.5-3.59,14.21-7.5l7.08-39c.68-3.77-.49-6.58-11.76-6s-13.51,3.6-14.19,7.37l-7.08,39C589.19,129.05,590.52,131.85,601.64,131.26Z"/><path class="c" d="M665.39,153.46c-3.86.2-5.27-1.3-4.61-4.93l17.05-94c.66-3.63,2.65-5.31,6.51-5.52l51.44-2.73c23.17-1.22,28.64,8.25,26,22.62l-1.21,6.67c-1.48,8.13-4.69,14-11.65,17,11.06.56,17.08,7.86,14.87,20l-5.58,30.76c-.65,3.63-2.64,5.32-6.5,5.52l-24,1.27c-3.86.2-5.27-1.3-4.61-4.93l4-22.2c.79-4.35-.41-6.15-4.73-5.92l-21.63,1.14-5.16,28.44c-.66,3.63-2.65,5.31-6.51,5.52Zm40.2-61.33,11.58-.61c5.41-.29,7.32-3.27,8-7.18l.89-4.94c.71-3.91-.15-6.74-5.56-6.46L709,73.56Z"/><path class="c" d="M775.54,147.62c-3.86.2-5.27-1.3-4.61-4.93l17.05-94c.65-3.63,2.64-5.31,6.51-5.52l52-2.76c26-1.38,36.29,7.42,32.64,27.58L871,113.25c-3.66,20.16-17.42,30.23-43.37,31.61Zm34.48-29,18.38-1c4.94-.26,7.66-2.56,8.55-7.49l6.4-35.26c.86-4.79-1.06-6.84-6-6.58l-18.39,1Z"/><path class="c" d="M886.15,141.75c-3.86.21-5.27-1.3-4.62-4.92l17.06-94c.65-3.62,2.64-5.31,6.5-5.51l71.68-3.8c3.86-.21,5.27,1.3,4.62,4.92l-3.08,17c-.66,3.62-2.65,5.31-6.51,5.52l-42.64,2.26-2,11.17,30.12-1.6c3.86-.2,5.27,1.3,4.61,4.93L959.06,93.2c-.66,3.63-2.65,5.32-6.51,5.52l-30.12,1.6-2.27,12.47,42.64-2.26c3.86-.2,5.27,1.3,4.61,4.93l-3.08,17c-.65,3.62-2.64,5.31-6.51,5.51Z"/><path class="c" d="M982.54,136.64c-3.86.21-5.27-1.3-4.61-4.92L995,37.7c.66-3.62,2.65-5.31,6.51-5.51l51.44-2.73c23.17-1.23,28.64,8.25,26,22.61l-1.21,6.68c-1.48,8.12-4.69,14-11.65,17,11.06.57,17.08,7.86,14.87,20.05l-5.58,30.76c-.65,3.62-2.64,5.31-6.5,5.51l-24,1.27c-3.86.21-5.27-1.3-4.61-4.92l4-22.2c.79-4.36-.41-6.16-4.73-5.93L1018,101.43l-5.16,28.43c-.66,3.63-2.64,5.32-6.51,5.52Zm40.2-61.33,11.58-.61c5.41-.29,7.32-3.26,8-7.18l.89-4.93c.71-3.92-.15-6.75-5.56-6.46l-11.58.61Z"/></g><path class="d" d="M32,179.67c-3.87.21-5.27-1.3-4.62-4.92l3.08-17c.66-3.62,2.65-5.31,6.51-5.52l41.55-2.2a5.14,5.14,0,0,0,4.78-4.42c.61-3.34-.54-4.57-3.12-4.72l-22.62-1.82C43.38,137.83,35,132.53,38,116.28l2.76-15.23c3-16.54,16.53-26.17,36.61-27.23l43.25-2.3c3.87-.2,5.27,1.3,4.62,4.93l-3.14,17.27c-.65,3.62-2.64,5.31-6.5,5.51l-36,1.91a5.25,5.25,0,0,0-5,4.58c-.47,2.61.76,4.27,3.33,4.42l22.49,1.68c14.15,1.26,22.68,6.55,19.73,22.8l-2.76,15.24c-3,16.54-16.68,26.17-36.61,27.23Z"/><path class="d" d="M161.27,172.82c-26,1.37-36.29-7.42-32.64-27.58l8.19-45.12c3.68-20.31,17.44-30.38,43.39-31.76l37.7-2c3.86-.2,5.27,1.3,4.61,4.93l-3.18,17.56c-.66,3.62-2.65,5.31-6.51,5.51L181.78,96c-6.49.34-9.85,2.82-10.74,7.75l-6.26,34.53c-.87,4.79,1.67,6.81,8.16,6.47L204,143.11c3.86-.21,5.27,1.3,4.61,4.93l-3.13,17.26c-.66,3.63-2.65,5.31-6.51,5.52Z"/><path class="d" d="M243.3,168.47l-22.71,1.2c-3.86.21-5.27-1.3-4.62-4.92l6.95-38.31c1.05-5.8,4.22-13.15,10.24-23.53l19.41-33.64c1.84-3.41,4.58-5,8.75-5.21l41.55-2.2c4-.22,6.22,1.1,6.86,4.38l7.46,32.22c2.33,9.93,2.87,17.09,1.82,22.89l-6.95,38.3c-.66,3.63-2.65,5.31-6.51,5.52l-23.33,1.23c-4.17.23-5.73-1.27-5.07-4.9l3.68-20.31-27.34,1.45L249.8,163C249.15,166.58,247.16,168.26,243.3,168.47Zm16.52-52.32,24.26-1.28L280.82,93.2c-.46-1.7-1.26-2.38-2.49-2.31l-3.86.2c-1.24.07-2.3.84-3.39,2.63Z"/><path class="d" d="M331,163.82c-3.86.2-5.27-1.3-4.61-4.93l17.05-94c.66-3.63,2.65-5.32,6.51-5.52L374.86,58c3.25-.17,5,.88,6.32,4l9.61,22.91c.77,1.68,1.1,2.38,2.33,2.32l1.39-.08c1.24-.06,1.84-.81,3.23-2.61l18-24.38c2.43-3.29,4.65-4.56,7.89-4.73l25-1.33c3.86-.2,5.27,1.31,4.61,4.93l-17.05,94c-.66,3.63-2.64,5.32-6.51,5.52L406,159.84c-4,.22-5.27-1.3-4.61-4.92l9.26-51.07-12,16.29c-2.46,3.44-5,4.87-9,5.08l-6.18.33c-4,.21-6.09-1-7.34-4.21L369.83,106l-9.26,51.07c-.66,3.62-2.65,5.31-6.51,5.52Z"/><path class="d" d="M488.3,155.48c-25.95,1.37-36.28-7.42-32.63-27.58l8.19-45.12C467.54,62.47,481.3,52.4,507.25,51L545,49c3.86-.2,5.27,1.3,4.61,4.93l-3.19,17.56c-.65,3.62-2.64,5.31-6.5,5.51l-31.05,1.65c-6.49.34-9.85,2.82-10.74,7.75L491.81,121c-.86,4.79,1.68,6.81,8.16,6.47l31-1.65c3.87-.21,5.28,1.3,4.62,4.93L532.51,148c-.66,3.63-2.65,5.31-6.51,5.52Z"/><path class="d" d="M589.56,152.26c-38.62,2.05-45.88-9.35-42.67-27l9-49.47C559.07,58,570.68,45.5,609.3,43.45S655,53,651.79,70.66l-9,49.47C639.61,137.83,628.18,150.22,589.56,152.26Zm5.08-28c11.28-.59,13.5-3.59,14.21-7.5l7.08-39c.68-3.77-.49-6.58-11.76-6s-13.51,3.6-14.19,7.37l-7.08,39C582.19,122.05,583.52,124.85,594.64,124.26Z"/><path class="d" d="M658.39,146.46c-3.86.2-5.27-1.3-4.61-4.93l17.05-94c.66-3.63,2.65-5.31,6.51-5.52l51.44-2.73c23.17-1.22,28.64,8.25,26,22.62l-1.21,6.67c-1.48,8.13-4.69,14-11.65,17,11.06.56,17.08,7.86,14.87,20l-5.58,30.76c-.65,3.63-2.64,5.32-6.5,5.52l-24,1.27c-3.86.2-5.27-1.3-4.61-4.93l4-22.2c.79-4.35-.41-6.15-4.73-5.92l-21.63,1.14-5.16,28.44c-.66,3.63-2.65,5.31-6.51,5.52Zm40.2-61.33,11.58-.61c5.41-.29,7.32-3.27,8-7.18l.89-4.94c.71-3.91-.15-6.74-5.56-6.46L702,66.56Z"/><path class="d" d="M768.54,140.62c-3.86.2-5.27-1.3-4.61-4.93l17.05-94c.65-3.63,2.64-5.31,6.51-5.52l52-2.76c26-1.38,36.29,7.42,32.64,27.58L864,106.25c-3.66,20.16-17.42,30.23-43.37,31.61Zm34.48-29,18.38-1c4.94-.26,7.66-2.56,8.55-7.49l6.4-35.26c.86-4.79-1.06-6.84-6-6.58l-18.39,1Z"/><path class="d" d="M879.15,134.75c-3.86.21-5.27-1.3-4.62-4.92l17.06-94c.65-3.62,2.64-5.31,6.5-5.51l71.68-3.8c3.86-.21,5.27,1.3,4.62,4.92l-3.08,17c-.66,3.62-2.65,5.31-6.51,5.52l-42.64,2.26-2,11.17,30.12-1.6c3.86-.2,5.27,1.3,4.61,4.93L952.06,86.2c-.66,3.63-2.65,5.32-6.51,5.52l-30.12,1.6-2.27,12.47,42.64-2.26c3.86-.2,5.27,1.3,4.61,4.93l-3.08,17c-.65,3.62-2.64,5.31-6.51,5.51Z"/><path class="d" d="M975.54,129.64c-3.86.21-5.27-1.3-4.61-4.92L988,30.7c.66-3.62,2.65-5.31,6.51-5.51l51.44-2.73c23.17-1.23,28.64,8.25,26,22.61l-1.21,6.68c-1.48,8.12-4.69,14-11.65,17,11.06.57,17.08,7.86,14.87,20.05l-5.58,30.76c-.65,3.62-2.64,5.31-6.5,5.51l-24,1.27c-3.86.21-5.27-1.3-4.61-4.92l4-22.2c.79-4.36-.41-6.16-4.73-5.93L1011,94.43l-5.16,28.43c-.66,3.63-2.64,5.32-6.51,5.52Zm40.2-61.33,11.58-.61c5.41-.29,7.32-3.26,8-7.18l.89-4.93c.71-3.92-.15-6.75-5.56-6.46l-11.58.61Z"/><path class="e" d="M29,175.67c-3.87.21-5.27-1.3-4.62-4.92l3.08-17c.66-3.62,2.65-5.31,6.51-5.52l41.55-2.2a5.14,5.14,0,0,0,4.78-4.42c.61-3.34-.54-4.57-3.12-4.72l-22.62-1.82C40.38,133.83,32,128.53,35,112.28l2.76-15.23c3-16.54,16.53-26.17,36.61-27.23l43.25-2.3c3.87-.2,5.27,1.3,4.62,4.93l-3.14,17.27c-.65,3.62-2.64,5.31-6.5,5.51l-36,1.91a5.25,5.25,0,0,0-5,4.58c-.47,2.61.76,4.27,3.33,4.42l22.49,1.68c14.15,1.26,22.68,6.55,19.73,22.8l-2.76,15.24c-3,16.54-16.68,26.17-36.61,27.23Z"/><path class="e" d="M158.27,168.82c-26,1.37-36.29-7.42-32.64-27.58l8.19-45.12c3.68-20.31,17.44-30.38,43.39-31.76l37.7-2c3.86-.2,5.27,1.3,4.61,4.93l-3.18,17.56c-.66,3.62-2.65,5.31-6.51,5.51L178.78,92c-6.49.34-9.85,2.82-10.74,7.75l-6.26,34.53c-.87,4.79,1.67,6.81,8.16,6.47L201,139.11c3.86-.21,5.27,1.3,4.61,4.93l-3.13,17.26c-.66,3.63-2.65,5.31-6.51,5.52Z"/><path class="e" d="M240.3,164.47l-22.71,1.2c-3.86.21-5.27-1.3-4.62-4.92l6.95-38.31c1.05-5.8,4.22-13.15,10.24-23.53l19.41-33.64c1.84-3.41,4.58-5,8.75-5.21l41.55-2.2c4-.22,6.22,1.1,6.86,4.38l7.46,32.22c2.33,9.93,2.87,17.09,1.82,22.89l-6.95,38.3c-.66,3.63-2.65,5.31-6.51,5.52l-23.33,1.23c-4.17.23-5.73-1.27-5.07-4.9l3.68-20.31-27.34,1.45L246.8,159C246.15,162.58,244.16,164.26,240.3,164.47Zm16.52-52.32,24.26-1.28L277.82,89.2c-.46-1.7-1.26-2.38-2.49-2.31l-3.86.2c-1.24.07-2.3.84-3.39,2.63Z"/><path class="e" d="M328,159.82c-3.86.2-5.27-1.3-4.61-4.93l17.05-94c.66-3.63,2.65-5.32,6.51-5.52L371.86,54c3.25-.17,5,.88,6.32,4l9.61,22.91c.77,1.68,1.1,2.38,2.33,2.32l1.39-.08c1.24-.06,1.84-.81,3.23-2.61l18-24.38c2.43-3.29,4.65-4.56,7.89-4.73l25-1.33c3.86-.2,5.27,1.31,4.61,4.93l-17.05,94c-.66,3.63-2.64,5.32-6.51,5.52L403,155.84c-4,.22-5.27-1.3-4.61-4.92l9.26-51.07-12,16.29c-2.46,3.44-5,4.87-9,5.08l-6.18.33c-4,.21-6.09-1-7.34-4.21L366.83,102l-9.26,51.07c-.66,3.62-2.65,5.31-6.51,5.52Z"/><path class="e" d="M485.3,151.48c-25.95,1.37-36.28-7.42-32.63-27.58l8.19-45.12C464.54,58.47,478.3,48.4,504.25,47L542,45c3.86-.2,5.27,1.3,4.61,4.93l-3.19,17.56c-.65,3.62-2.64,5.31-6.5,5.51l-31.05,1.65c-6.49.34-9.85,2.82-10.74,7.75L488.81,117c-.86,4.79,1.68,6.81,8.16,6.47l31-1.65c3.87-.21,5.28,1.3,4.62,4.93L529.51,144c-.66,3.63-2.65,5.31-6.51,5.52Z"/><path class="e" d="M586.56,148.26c-38.62,2.05-45.88-9.35-42.67-27l9-49.47C556.07,54,567.68,41.5,606.3,39.45S652,49,648.79,66.66l-9,49.47C636.61,133.83,625.18,146.22,586.56,148.26Zm5.08-28c11.28-.59,13.5-3.59,14.21-7.5l7.08-39c.68-3.77-.49-6.58-11.76-6s-13.51,3.6-14.19,7.37l-7.08,39C579.19,118.05,580.52,120.85,591.64,120.26Z"/><path class="e" d="M655.39,142.46c-3.86.2-5.27-1.3-4.61-4.93l17.05-94c.66-3.63,2.65-5.31,6.51-5.52l51.44-2.73c23.17-1.22,28.64,8.25,26,22.62l-1.21,6.67c-1.48,8.13-4.69,14-11.65,17,11.06.56,17.08,7.86,14.87,20l-5.58,30.76c-.65,3.63-2.64,5.32-6.5,5.52l-24,1.27c-3.86.2-5.27-1.3-4.61-4.93l4-22.2c.79-4.35-.41-6.15-4.73-5.92l-21.63,1.14-5.16,28.44c-.66,3.63-2.65,5.31-6.51,5.52Zm40.2-61.33,11.58-.61c5.41-.29,7.32-3.27,8-7.18l.89-4.94c.71-3.91-.15-6.74-5.56-6.46L699,62.56Z"/><path class="e" d="M765.54,136.62c-3.86.2-5.27-1.3-4.61-4.93l17.05-94c.65-3.63,2.64-5.31,6.51-5.52l52-2.76c26-1.38,36.29,7.42,32.64,27.58L861,102.25c-3.66,20.16-17.42,30.23-43.37,31.61Zm34.48-29,18.38-1c4.94-.26,7.66-2.56,8.55-7.49l6.4-35.26c.86-4.79-1.06-6.84-6-6.58l-18.39,1Z"/><path class="e" d="M876.15,130.75c-3.86.21-5.27-1.3-4.62-4.92l17.06-94c.65-3.62,2.64-5.31,6.5-5.51l71.68-3.8c3.86-.21,5.27,1.3,4.62,4.92l-3.08,17c-.66,3.62-2.65,5.31-6.51,5.52l-42.64,2.26-2,11.17,30.12-1.6c3.86-.2,5.27,1.3,4.61,4.93L949.06,82.2c-.66,3.63-2.65,5.32-6.51,5.52l-30.12,1.6-2.27,12.47,42.64-2.26c3.86-.2,5.27,1.3,4.61,4.93l-3.08,17c-.65,3.62-2.64,5.31-6.51,5.51Z"/><path class="e" d="M972.54,125.64c-3.86.21-5.27-1.3-4.61-4.92L985,26.7c.66-3.62,2.65-5.31,6.51-5.51l51.44-2.73c23.17-1.23,28.64,8.25,26,22.61l-1.21,6.68c-1.48,8.12-4.69,14-11.65,17,11.06.57,17.08,7.86,14.87,20.05l-5.58,30.76c-.65,3.62-2.64,5.31-6.5,5.51l-24,1.27c-3.86.21-5.27-1.3-4.61-4.92l4-22.2c.79-4.36-.41-6.16-4.73-5.93L1008,90.43l-5.16,28.43c-.66,3.63-2.64,5.32-6.51,5.52Zm40.2-61.33,11.58-.61c5.41-.29,7.32-3.26,8-7.18l.89-4.93c.71-3.92-.15-6.75-5.56-6.46l-11.58.61Z"/><path class="f" d="M28,173.67c-3.87.21-5.27-1.3-4.62-4.92l3.08-17c.66-3.62,2.65-5.31,6.51-5.52l41.55-2.2a5.14,5.14,0,0,0,4.78-4.42c.61-3.34-.54-4.57-3.12-4.72l-22.62-1.82C39.38,131.83,31,126.53,34,110.28l2.76-15.23c3-16.54,16.53-26.17,36.61-27.23l43.25-2.3c3.87-.2,5.27,1.3,4.62,4.93l-3.14,17.27c-.65,3.62-2.64,5.31-6.5,5.51l-36,1.91a5.25,5.25,0,0,0-5,4.58c-.47,2.61.76,4.27,3.33,4.42l22.49,1.68c14.15,1.26,22.68,6.55,19.73,22.8l-2.76,15.24c-3,16.54-16.68,26.17-36.61,27.23Z"/><path class="f" d="M157.27,166.82c-26,1.37-36.29-7.42-32.64-27.58l8.19-45.12c3.68-20.31,17.44-30.38,43.39-31.76l37.7-2c3.86-.2,5.27,1.3,4.61,4.93l-3.18,17.56c-.66,3.62-2.65,5.31-6.51,5.51L177.78,90c-6.49.34-9.85,2.82-10.74,7.75l-6.26,34.53c-.87,4.79,1.67,6.81,8.16,6.47L200,137.11c3.86-.21,5.27,1.3,4.61,4.93l-3.13,17.26c-.66,3.63-2.65,5.31-6.51,5.52Z"/><path class="f" d="M239.3,162.47l-22.71,1.2c-3.86.21-5.27-1.3-4.62-4.92l6.95-38.31c1.05-5.8,4.22-13.15,10.24-23.53l19.41-33.64c1.84-3.41,4.58-5,8.75-5.21l41.55-2.2c4-.22,6.22,1.1,6.86,4.38l7.46,32.22c2.33,9.93,2.87,17.09,1.82,22.89l-6.95,38.3c-.66,3.63-2.65,5.31-6.51,5.52l-23.33,1.23c-4.17.23-5.73-1.27-5.07-4.9l3.68-20.31-27.34,1.45L245.8,157C245.15,160.58,243.16,162.26,239.3,162.47Zm16.52-52.32,24.26-1.28L276.82,87.2c-.46-1.7-1.26-2.38-2.49-2.31l-3.86.2c-1.24.07-2.3.84-3.39,2.63Z"/><path class="f" d="M327,157.82c-3.86.2-5.27-1.3-4.61-4.93l17.05-94c.66-3.63,2.65-5.32,6.51-5.52L370.86,52c3.25-.17,5,.88,6.32,4l9.61,22.91c.77,1.68,1.1,2.38,2.33,2.32l1.39-.08c1.24-.06,1.84-.81,3.23-2.61l18-24.38c2.43-3.29,4.65-4.56,7.89-4.73l25-1.33c3.86-.2,5.27,1.31,4.61,4.93l-17.05,94c-.66,3.63-2.64,5.32-6.51,5.52L402,153.84c-4,.22-5.27-1.3-4.61-4.92l9.26-51.07-12,16.29c-2.46,3.44-5,4.87-9,5.08l-6.18.33c-4,.21-6.09-1-7.34-4.21L365.83,100l-9.26,51.07c-.66,3.62-2.65,5.31-6.51,5.52Z"/><path class="f" d="M484.3,149.48c-25.95,1.37-36.28-7.42-32.63-27.58l8.19-45.12C463.54,56.47,477.3,46.4,503.25,45L541,43c3.86-.2,5.27,1.3,4.61,4.93l-3.19,17.56c-.65,3.62-2.64,5.31-6.5,5.51l-31.05,1.65c-6.49.34-9.85,2.82-10.74,7.75L487.81,115c-.86,4.79,1.68,6.81,8.16,6.47l31-1.65c3.87-.21,5.28,1.3,4.62,4.93L528.51,142c-.66,3.63-2.65,5.31-6.51,5.52Z"/><path class="f" d="M585.56,146.26c-38.62,2.05-45.88-9.35-42.67-27l9-49.47C555.07,52,566.68,39.5,605.3,37.45S651,47,647.79,64.66l-9,49.47C635.61,131.83,624.18,144.22,585.56,146.26Zm5.08-28c11.28-.59,13.5-3.59,14.21-7.5l7.08-39c.68-3.77-.49-6.58-11.76-6s-13.51,3.6-14.19,7.37l-7.08,39C578.19,116.05,579.52,118.85,590.64,118.26Z"/><path class="f" d="M654.39,140.46c-3.86.2-5.27-1.3-4.61-4.93l17.05-94c.66-3.63,2.65-5.31,6.51-5.52l51.44-2.73c23.17-1.22,28.64,8.25,26,22.62l-1.21,6.67c-1.48,8.13-4.69,14-11.65,17,11.06.56,17.08,7.86,14.87,20l-5.58,30.76c-.65,3.63-2.64,5.32-6.5,5.52l-24,1.27c-3.86.2-5.27-1.3-4.61-4.93l4-22.2c.79-4.35-.41-6.15-4.73-5.92l-21.63,1.14-5.16,28.44c-.66,3.63-2.65,5.31-6.51,5.52Zm40.2-61.33,11.58-.61c5.41-.29,7.32-3.27,8-7.18l.89-4.94c.71-3.91-.15-6.74-5.56-6.46L698,60.56Z"/><path class="f" d="M764.54,134.62c-3.86.2-5.27-1.3-4.61-4.93l17.05-94c.65-3.63,2.64-5.31,6.51-5.52l52-2.76c26-1.38,36.29,7.42,32.64,27.58L860,100.25c-3.66,20.16-17.42,30.23-43.37,31.61Zm34.48-29,18.38-1c4.94-.26,7.66-2.56,8.55-7.49l6.4-35.26c.86-4.79-1.06-6.84-6-6.58l-18.39,1Z"/><path class="f" d="M875.15,128.75c-3.86.21-5.27-1.3-4.62-4.92l17.06-94c.65-3.62,2.64-5.31,6.5-5.51l71.68-3.8c3.86-.21,5.27,1.3,4.62,4.92l-3.08,17c-.66,3.62-2.65,5.31-6.51,5.52l-42.64,2.26-2,11.17,30.12-1.6c3.86-.2,5.27,1.3,4.61,4.93L948.06,80.2c-.66,3.63-2.65,5.32-6.51,5.52l-30.12,1.6-2.27,12.47,42.64-2.26c3.86-.2,5.27,1.3,4.61,4.93l-3.08,17c-.65,3.62-2.64,5.31-6.51,5.51Z"/><path class="f" d="M971.54,123.64c-3.86.21-5.27-1.3-4.61-4.92L984,24.7c.66-3.62,2.65-5.31,6.51-5.51l51.44-2.73c23.17-1.23,28.64,8.25,26,22.61l-1.21,6.68c-1.48,8.12-4.69,14-11.65,17,11.06.57,17.08,7.86,14.87,20.05l-5.58,30.76c-.65,3.62-2.64,5.31-6.5,5.51l-24,1.27c-3.86.21-5.27-1.3-4.61-4.92l4-22.2c.79-4.36-.41-6.16-4.73-5.93L1007,88.43l-5.16,28.43c-.66,3.63-2.64,5.32-6.51,5.52Zm40.2-61.33,11.58-.61c5.41-.29,7.32-3.26,8-7.18l.89-4.93c.71-3.92-.15-6.75-5.56-6.46l-11.58.61Z"/><path class="g" d="M29,175.67c-3.87.21-5.27-1.3-4.62-4.92l3.08-17c.66-3.62,2.65-5.31,6.51-5.52l41.55-2.2a5.14,5.14,0,0,0,4.78-4.42c.61-3.34-.54-4.57-3.12-4.72l-22.62-1.82C40.38,133.83,32,128.53,35,112.28l2.76-15.23c3-16.54,16.53-26.17,36.61-27.23l43.25-2.3c3.87-.2,5.27,1.3,4.62,4.93l-3.14,17.27c-.65,3.62-2.64,5.31-6.5,5.51l-36,1.91a5.25,5.25,0,0,0-5,4.58c-.47,2.61.76,4.27,3.33,4.42l22.49,1.68c14.15,1.26,22.68,6.55,19.73,22.8l-2.76,15.24c-3,16.54-16.68,26.17-36.61,27.23Z"/><path class="g" d="M158.27,168.82c-26,1.37-36.29-7.42-32.64-27.58l8.19-45.12c3.68-20.31,17.44-30.38,43.39-31.76l37.7-2c3.86-.2,5.27,1.3,4.61,4.93l-3.18,17.56c-.66,3.62-2.65,5.31-6.51,5.51L178.78,92c-6.49.34-9.85,2.82-10.74,7.75l-6.26,34.53c-.87,4.79,1.67,6.81,8.16,6.47L201,139.11c3.86-.21,5.27,1.3,4.61,4.93l-3.13,17.26c-.66,3.63-2.65,5.31-6.51,5.52Z"/><path class="g" d="M240.3,164.47l-22.71,1.2c-3.86.21-5.27-1.3-4.62-4.92l6.95-38.31c1.05-5.8,4.22-13.15,10.24-23.53l19.41-33.64c1.84-3.41,4.58-5,8.75-5.21l41.55-2.2c4-.22,6.22,1.1,6.86,4.38l7.46,32.22c2.33,9.93,2.87,17.09,1.82,22.89l-6.95,38.3c-.66,3.63-2.65,5.31-6.51,5.52l-23.33,1.23c-4.17.23-5.73-1.27-5.07-4.9l3.68-20.31-27.34,1.45L246.8,159C246.15,162.58,244.16,164.26,240.3,164.47Zm16.52-52.32,24.26-1.28L277.82,89.2c-.46-1.7-1.26-2.38-2.49-2.31l-3.86.2c-1.24.07-2.3.84-3.39,2.63Z"/><path class="g" d="M328,159.82c-3.86.2-5.27-1.3-4.61-4.93l17.05-94c.66-3.63,2.65-5.32,6.51-5.52L371.86,54c3.25-.17,5,.88,6.32,4l9.61,22.91c.77,1.68,1.1,2.38,2.33,2.32l1.39-.08c1.24-.06,1.84-.81,3.23-2.61l18-24.38c2.43-3.29,4.65-4.56,7.89-4.73l25-1.33c3.86-.2,5.27,1.31,4.61,4.93l-17.05,94c-.66,3.63-2.64,5.32-6.51,5.52L403,155.84c-4,.22-5.27-1.3-4.61-4.92l9.26-51.07-12,16.29c-2.46,3.44-5,4.87-9,5.08l-6.18.33c-4,.21-6.09-1-7.34-4.21L366.83,102l-9.26,51.07c-.66,3.62-2.65,5.31-6.51,5.52Z"/><path class="g" d="M485.3,151.48c-25.95,1.37-36.28-7.42-32.63-27.58l8.19-45.12C464.54,58.47,478.3,48.4,504.25,47L542,45c3.86-.2,5.27,1.3,4.61,4.93l-3.19,17.56c-.65,3.62-2.64,5.31-6.5,5.51l-31.05,1.65c-6.49.34-9.85,2.82-10.74,7.75L488.81,117c-.86,4.79,1.68,6.81,8.16,6.47l31-1.65c3.87-.21,5.28,1.3,4.62,4.93L529.51,144c-.66,3.63-2.65,5.31-6.51,5.52Z"/><path class="g" d="M586.56,148.26c-38.62,2.05-45.88-9.35-42.67-27l9-49.47C556.07,54,567.68,41.5,606.3,39.45S652,49,648.79,66.66l-9,49.47C636.61,133.83,625.18,146.22,586.56,148.26Zm5.08-28c11.28-.59,13.5-3.59,14.21-7.5l7.08-39c.68-3.77-.49-6.58-11.76-6s-13.51,3.6-14.19,7.37l-7.08,39C579.19,118.05,580.52,120.85,591.64,120.26Z"/><path class="g" d="M655.39,142.46c-3.86.2-5.27-1.3-4.61-4.93l17.05-94c.66-3.63,2.65-5.31,6.51-5.52l51.44-2.73c23.17-1.22,28.64,8.25,26,22.62l-1.21,6.67c-1.48,8.13-4.69,14-11.65,17,11.06.56,17.08,7.86,14.87,20l-5.58,30.76c-.65,3.63-2.64,5.32-6.5,5.52l-24,1.27c-3.86.2-5.27-1.3-4.61-4.93l4-22.2c.79-4.35-.41-6.15-4.73-5.92l-21.63,1.14-5.16,28.44c-.66,3.63-2.65,5.31-6.51,5.52Zm40.2-61.33,11.58-.61c5.41-.29,7.32-3.27,8-7.18l.89-4.94c.71-3.91-.15-6.74-5.56-6.46L699,62.56Z"/><path class="g" d="M765.54,136.62c-3.86.2-5.27-1.3-4.61-4.93l17.05-94c.65-3.63,2.64-5.31,6.51-5.52l52-2.76c26-1.38,36.29,7.42,32.64,27.58L861,102.25c-3.66,20.16-17.42,30.23-43.37,31.61Zm34.48-29,18.38-1c4.94-.26,7.66-2.56,8.55-7.49l6.4-35.26c.86-4.79-1.06-6.84-6-6.58l-18.39,1Z"/><path class="g" d="M876.15,130.75c-3.86.21-5.27-1.3-4.62-4.92l17.06-94c.65-3.62,2.64-5.31,6.5-5.51l71.68-3.8c3.86-.21,5.27,1.3,4.62,4.92l-3.08,17c-.66,3.62-2.65,5.31-6.51,5.52l-42.64,2.26-2,11.17,30.12-1.6c3.86-.2,5.27,1.3,4.61,4.93L949.06,82.2c-.66,3.63-2.65,5.32-6.51,5.52l-30.12,1.6-2.27,12.47,42.64-2.26c3.86-.2,5.27,1.3,4.61,4.93l-3.08,17c-.65,3.62-2.64,5.31-6.51,5.51Z"/><path class="g" d="M972.54,125.64c-3.86.21-5.27-1.3-4.61-4.92L985,26.7c.66-3.62,2.65-5.31,6.51-5.51l51.44-2.73c23.17-1.23,28.64,8.25,26,22.61l-1.21,6.68c-1.48,8.12-4.69,14-11.65,17,11.06.57,17.08,7.86,14.87,20.05l-5.58,30.76c-.65,3.62-2.64,5.31-6.5,5.51l-24,1.27c-3.86.21-5.27-1.3-4.61-4.92l4-22.2c.79-4.36-.41-6.16-4.73-5.93L1008,90.43l-5.16,28.43c-.66,3.63-2.64,5.32-6.51,5.52Zm40.2-61.33,11.58-.61c5.41-.29,7.32-3.26,8-7.18l.89-4.93c.71-3.92-.15-6.75-5.56-6.46l-11.58.61Z"/></g></svg>